# xmcd
#
# Track frame offsets: 
#        150
#        21293
#        38479
#        55884
#        77948
#        90557
#        105868
#        120354
#        134507
#        150809
#        162654
#        188811
#        202255
#        218253
#        232275
#
# Disc length: 3323 seconds
#
# Revision: 0
# Processed by: cddbd v1.5.2PL0 Copyright (c) Steve Scherf et al.
# Submitted via: ExactAudioCopy v1.0b4
#
DISCID=be0cf90f
DTITLE=Peter and Mick Green - Two Greens Make A Blues
DYEAR=1998
DGENRE=Blues Rock
TTITLE0=All Quiet
TTITLE1=Chinese White Boy
TTITLE2=Rock And Roll Feeling
TTITLE3=Doctor
TTITLE4=Four Minute Melody
TTITLE5=Post Modern Blues
TTITLE6=Eprom Song
TTITLE7=Intensity Of Vision
TTITLE8=Camel's Eye Blues
TTITLE9=Way You Dance
TTITLE10=End Zone
TTITLE11=Nitzsche's Ass
TTITLE12=Who Do You Love
TTITLE13=Stab The Knife
TTITLE14=Rosy
EXTD=
EXTT0=
EXTT1=
EXTT2=
EXTT3=
EXTT4=
EXTT5=
EXTT6=
EXTT7=
EXTT8=
EXTT9=
EXTT10=
EXTT11=
EXTT12=
EXTT13=
EXTT14=
PLAYORDER=
